{
  "accessors": [
    {
      "name": "Lamborginhi_Aventador:Wheel_RL_1_0_positions",
      "componentType": 5126,
      "count": 21698,
      "min": [
        -115.10138702392578,
        0.04035399854183197,
        -243.03543090820312
      ],
      "max": [
        115.10138702392578,
        117.59369659423828,
        246.40521240234375
      ],
      "type": "VEC3",
      "bufferView": 0,
      "byteOffset": 0
    },
    {
      "name": "Lamborginhi_Aventador:Wheel_RL_1_0_normals",
      "componentType": 5126,
      "count": 21698,
      "min": [
        -1,
        -1,
        -1
      ],
      "max": [
        1,
        1,
        1
      ],
      "type": "VEC3",
      "bufferView": 1,
      "byteOffset": 0
    },
    {
      "name": "Lamborginhi_Aventador:Wheel_RL_1_0_texcoords",
      "componentType": 5126,
      "count": 21698,
      "min": [
        0.0003910000086762011,
        0.0025059999898076057
      ],
      "max": [
        0.99863600730896,
        0.9985089898109436
      ],
      "type": "VEC2",
      "bufferView": 2,
      "byteOffset": 0
    },
    {
      "name": "Lamborginhi_Aventador:Wheel_RL_1_0_indices",
      "componentType": 5123,
      "count": 30756,
      "min": [
        0
      ],
      "max": [
        21697
      ],
      "type": "SCALAR",
      "bufferView": 3,
      "byteOffset": 0
    }
  ],
  "asset": {
    "generator": "obj2gltf",
    "version": "2.0"
  },
  "buffers": [
    {
      "name": "lamborgini_car_01",
      "byteLength": 2734948,
      "uri": "data:application/octet-stream;base64,"
    }
  ],
  "bufferViews": [
    {
      "name": "bufferView_0",
      "buffer": 0,
      "byteLength": 260376,
      "byteOffset": 0,
      "byteStride": 12,
      "target": 34962
    },
    {
      "name": "bufferView_1",
      "buffer": 0,
      "byteLength": 260376,
      "byteOffset": 260376,
      "byteStride": 12,
      "target": 34962
    },
    {
      "name": "bufferView_2",
      "buffer": 0,
      "byteLength": 173584,
      "byteOffset": 520752,
      "byteStride": 8,
      "target": 34962
    },
    {
      "name": "bufferView_3",
      "buffer": 0,
      "byteLength": 61512,
      "byteOffset": 694336,
      "target": 34963
    },
    {
      "buffer": 0,
      "byteOffset": 755848,
      "byteLength": 1979099
    }
  ],
  "images": [
    {
      "name": "Lamborginhi _03",
      "mimeType": "image/png",
      "bufferView": 4
    }
  ],
  "materials": [
    {
      "name": "Lamborginhi_Aventador:BodySG",
      "pbrMetallicRoughness": {
        "baseColorTexture": {
          "index": 0
        },
        "baseColorFactor": [
          1,
          1,
          1,
          1
        ],
        "metallicFactor": 0,
        "roughnessFactor": 1
      },
      "emissiveFactor": [
        0,
        0,
        0
      ],
      "alphaMode": "OPAQUE",
      "doubleSided": false
    }
  ],
  "meshes": [
    {
      "name": "Lamborginhi_Aventador:Wheel_RL_1",
      "primitives": [
        {
          "attributes": {
            "POSITION": 0,
            "NORMAL": 1,
            "TEXCOORD_0": 2
          },
          "indices": 3,
          "material": 0,
          "mode": 4
        }
      ]
    }
  ],
  "nodes": [
    {
      "name": "Lamborginhi_Aventador:Wheel_RL",
      "mesh": 0
    }
  ],
  "samplers": [
    {
      "magFilter": 9729,
      "minFilter": 9986,
      "wrapS": 10497,
      "wrapT": 10497
    }
  ],
  "scene": 0,
  "scenes": [
    {
      "nodes": [
        0
      ]
    }
  ],
  "textures": [
    {
      "name": "Lamborginhi _03",
      "sampler": 0,
      "source": 0
    }
  ]
}
