{
	"accessors" : 
	[
		{
			"bufferView" : 2,
			"byteOffset" : 0,
			"componentType" : 5126,
			"count" : 7240,
			"max" : 
			[
				1,
				1,
				1,
				1
			],
			"min" : 
			[
				0,
				0.006584956776350737,
				0,
				1
			],
			"name" : "accessor_color_m0-PolyPaper8_-1129592",
			"type" : "VEC4"
		},
		{
			"bufferView" : 2,
			"byteOffset" : 115840,
			"componentType" : 5126,
			"count" : 1476,
			"max" : 
			[
				1,
				1,
				1,
				1
			],
			"min" : 
			[
				1,
				1,
				1,
				1
			],
			"name" : "accessor_color_m1-PolyGlass24_-1129598",
			"type" : "VEC4"
		},
		{
			"bufferView" : 2,
			"byteOffset" : 139456,
			"componentType" : 5126,
			"count" : 12,
			"max" : 
			[
				1,
				1,
				1,
				1
			],
			"min" : 
			[
				1,
				1,
				1,
				1
			],
			"name" : "accessor_color_m2-PolyGem25_-1129604",
			"type" : "VEC4"
		},
		{
			"bufferView" : 0,
			"byteOffset" : 0,
			"componentType" : 5123,
			"count" : 11610,
			"max" : 
			[
				7239
			],
			"min" : 
			[
				0
			],
			"name" : "accessor_indices_0_m0-PolyPaper8_-1129592",
			"type" : "SCALAR"
		},
		{
			"bufferView" : 0,
			"byteOffset" : 23220,
			"componentType" : 5123,
			"count" : 2220,
			"max" : 
			[
				1475
			],
			"min" : 
			[
				0
			],
			"name" : "accessor_indices_0_m1-PolyGlass24_-1129598",
			"type" : "SCALAR"
		},
		{
			"bufferView" : 0,
			"byteOffset" : 27660,
			"componentType" : 5123,
			"count" : 24,
			"max" : 
			[
				11
			],
			"min" : 
			[
				0
			],
			"name" : "accessor_indices_0_m2-PolyGem25_-1129604",
			"type" : "SCALAR"
		},
		{
			"bufferView" : 1,
			"byteOffset" : 86880,
			"componentType" : 5126,
			"count" : 7240,
			"max" : 
			[
				1,
				1,
				1
			],
			"min" : 
			[
				-1,
				-1,
				-1
			],
			"name" : "accessor_normal_m0-PolyPaper8_-1129592",
			"type" : "VEC3"
		},
		{
			"bufferView" : 1,
			"byteOffset" : 191472,
			"componentType" : 5126,
			"count" : 1476,
			"max" : 
			[
				1,
				1,
				1
			],
			"min" : 
			[
				-1,
				-1,
				-1
			],
			"name" : "accessor_normal_m1-PolyGlass24_-1129598",
			"type" : "VEC3"
		},
		{
			"bufferView" : 1,
			"byteOffset" : 209328,
			"componentType" : 5126,
			"count" : 12,
			"max" : 
			[
				0.1825835,
				0.8704073,
				1
			],
			"min" : 
			[
				0,
				2.392671e-07,
				0.4572253
			],
			"name" : "accessor_normal_m2-PolyGem25_-1129604",
			"type" : "VEC3"
		},
		{
			"bufferView" : 1,
			"byteOffset" : 0,
			"componentType" : 5126,
			"count" : 7240,
			"max" : 
			[
				0.6851761,
				2.607463,
				-0.4224293
			],
			"min" : 
			[
				-0.6073132999999999,
				-0.2047973,
				-1.505531
			],
			"name" : "accessor_position_m0-PolyPaper8_-1129592",
			"type" : "VEC3"
		},
		{
			"bufferView" : 1,
			"byteOffset" : 173760,
			"componentType" : 5126,
			"count" : 1476,
			"max" : 
			[
				0.5496105,
				2.566236,
				-0.421191
			],
			"min" : 
			[
				-0.5007938,
				0.5127946,
				-0.8700509
			],
			"name" : "accessor_position_m1-PolyGlass24_-1129598",
			"type" : "VEC3"
		},
		{
			"bufferView" : 1,
			"byteOffset" : 209184,
			"componentType" : 5126,
			"count" : 12,
			"max" : 
			[
				0.5007992,
				2.07051,
				-0.5590515
			],
			"min" : 
			[
				-0.4831487,
				0.6955046,
				-0.8692027
			],
			"name" : "accessor_position_m2-PolyGem25_-1129604",
			"type" : "VEC3"
		}
	],
	"asset" : 
	{
		"copyright" : "Unknown",
		"generator" : "glTF 1-to-2 Upgrader for Google Blocks",
		"version" : "2.0"
	},
	"bufferViews" : 
	[
		{
			"buffer" : 0,
			"byteLength" : 27708,
			"byteOffset" : 0,
			"name" : "ushortBufferView",
			"target" : 34963
		},
		{
			"buffer" : 0,
			"byteLength" : 209472,
			"byteOffset" : 27708,
			"byteStride" : 12,
			"name" : "vec3BufferView",
			"target" : 34962
		},
		{
			"buffer" : 0,
			"byteLength" : 139648,
			"byteOffset" : 237180,
			"byteStride" : 16,
			"name" : "vec4BufferView",
			"target" : 34962
		}
	],
	"buffers" : 
	[
		{
			"byteLength" : 376828,
			"name" : "model",
			"uri" : "model.bin"
		}
	],
	"materials" : 
	[
		{
			"alphaMode" : "OPAQUE",
			"doubleSided" : false,
			"name" : "BlocksPaper",
			"pbrMetallicRoughness" : 
			{
				"baseColorFactor" : 
				[
					1,
					1,
					1,
					1
				],
				"metallicFactor" : 0,
				"roughnessFactor" : 0.6
			}
		},
		{
			"alphaMode" : "BLEND",
			"doubleSided" : false,
			"name" : "BlocksGlass",
			"pbrMetallicRoughness" : 
			{
				"baseColorFactor" : 
				[
					0.2,
					0.2,
					1,
					0.3
				],
				"metallicFactor" : 1,
				"roughnessFactor" : 0.4
			}
		},
		{
			"alphaMode" : "OPAQUE",
			"doubleSided" : true,
			"name" : "BlocksGem",
			"pbrMetallicRoughness" : 
			{
				"baseColorFactor" : 
				[
					1,
					0.4,
					1,
					1
				],
				"metallicFactor" : 0,
				"roughnessFactor" : 0.1
			}
		}
	],
	"meshes" : 
	[
		{
			"name" : "mesh_m0-PolyPaper8_-1129592",
			"primitives" : 
			[
				{
					"attributes" : 
					{
						"COLOR_0" : 0,
						"NORMAL" : 6,
						"POSITION" : 9
					},
					"indices" : 3,
					"material" : 0,
					"mode" : 4
				}
			]
		},
		{
			"name" : "mesh_m1-PolyGlass24_-1129598",
			"primitives" : 
			[
				{
					"attributes" : 
					{
						"COLOR_0" : 1,
						"NORMAL" : 7,
						"POSITION" : 10
					},
					"indices" : 4,
					"material" : 1,
					"mode" : 4
				}
			]
		},
		{
			"name" : "mesh_m2-PolyGem25_-1129604",
			"primitives" : 
			[
				{
					"attributes" : 
					{
						"COLOR_0" : 2,
						"NORMAL" : 8,
						"POSITION" : 11
					},
					"indices" : 5,
					"material" : 2,
					"mode" : 4
				}
			]
		}
	],
	"nodes" : 
	[
		{
			"matrix" : 
			[
				1,
				0,
				0,
				0,
				0,
				1,
				0,
				0,
				0,
				0,
				1,
				0,
				0,
				0,
				0,
				1
			],
			"mesh" : 2,
			"name" : "node_MeshObject-908864512-PolyGem25"
		},
		{
			"matrix" : 
			[
				1,
				0,
				0,
				0,
				0,
				1,
				0,
				0,
				0,
				0,
				1,
				0,
				0,
				0,
				0,
				1
			],
			"mesh" : 0,
			"name" : "node_MeshObject1106534400-PolyPaper8"
		},
		{
			"matrix" : 
			[
				1,
				0,
				0,
				0,
				0,
				1,
				0,
				0,
				0,
				0,
				1,
				0,
				0,
				0,
				0,
				1
			],
			"mesh" : 1,
			"name" : "node_MeshObject1678613504-PolyGlass24"
		}
	],
	"scene" : 0,
	"scenes" : 
	[
		{
			"extras" : {},
			"name" : "defaultScene",
			"nodes" : 
			[
				1,
				2,
				0
			]
		}
	]
}